<svg width="36" height="36" viewBox="0 0 36 36" fill="none" xmlns="http://www.w3.org/2000/svg">
<g clip-path="url(#clip0_18_150)">
<path fill-rule="evenodd" clip-rule="evenodd" d="M22.8612 10.3081C21.4223 9.34668 19.7306 8.8335 18 8.8335V0.0834961C21.4611 0.0834961 24.8446 1.10985 27.7225 3.03278C30.6004 4.9557 32.8433 7.68883 34.1679 10.8865C35.4924 14.0842 35.839 17.6029 35.1637 20.9976C34.4885 24.3922 32.8218 27.5105 30.3743 29.9578C27.927 32.4053 24.8087 34.072 21.4141 34.7472C18.0194 35.4225 14.5007 35.0759 11.303 33.7514C8.10533 32.4268 5.3722 30.1838 3.44928 27.306C1.52636 24.4281 0.5 21.0446 0.5 17.5835H9.25C9.25 19.3141 9.76319 21.0058 10.7246 22.4447C11.6861 23.8837 13.0527 25.0052 14.6516 25.6674C16.2504 26.3297 18.0097 26.503 19.707 26.1653C21.4044 25.8277 22.9634 24.9944 24.1872 23.7707C25.4109 22.5469 26.2442 20.9879 26.5818 19.2905C26.9195 17.5932 26.7462 15.8338 26.084 14.235C25.4217 12.6362 24.3002 11.2696 22.8612 10.3081Z" fill="#171717" fill-opacity="0.8"/>
<path fill-rule="evenodd" clip-rule="evenodd" d="M9.25 0.0834999C9.25 1.23257 9.02368 2.37038 8.58395 3.43198C8.14422 4.49358 7.4997 5.45817 6.68718 6.27069C5.87467 7.0832 4.91008 7.72772 3.84848 8.16745C2.78688 8.60717 1.64906 8.8335 0.5 8.8335L0.5 17.5835C2.79813 17.5835 5.07376 17.1309 7.19697 16.2514C9.32017 15.3719 11.2494 14.0829 12.8743 12.4578C14.4994 10.8329 15.7884 8.90367 16.6679 6.78046C17.5474 4.65726 18 2.38163 18 0.0834961L9.25 0.0834999Z" fill="#171717" fill-opacity="0.8"/>
</g>
<defs>
<clipPath id="clip0_18_150">
<rect width="35" height="35" fill="white" transform="translate(0.5 0.0834961)"/>
</clipPath>
</defs>
</svg>
