<svg width="34" height="25" viewBox="0 0 34 25" fill="none" xmlns="http://www.w3.org/2000/svg">
<g clip-path="url(#clip0_18_139)">
<path fill-rule="evenodd" clip-rule="evenodd" d="M8.8218 4.3456L0.666748 12.5834C2.29791 14.2312 4.16126 15.6198 6.19284 16.7062C6.75438 18.2109 7.63457 19.622 8.83342 20.833C13.3438 25.3891 20.6565 25.3891 25.1667 20.833C26.3656 19.622 27.2458 18.2109 27.8074 16.7062C29.8389 15.6198 31.7023 14.2312 33.3334 12.5834L25.185 4.3523C25.1789 4.34614 25.1729 4.33998 25.1667 4.33383C20.6565 -0.222279 13.3438 -0.222279 8.83342 4.33383C8.82955 4.33775 8.82567 4.34167 8.8218 4.3456ZM24.3864 18.1925C22.0099 19.0027 19.5152 19.4176 17.0001 19.4176C14.485 19.4176 11.9903 19.0027 9.61382 18.1925C9.87132 18.5376 10.1556 18.8687 10.4667 19.1831C14.075 22.828 19.9251 22.828 23.5334 19.1831C23.8446 18.8687 24.1289 18.5376 24.3864 18.1925ZM10.6342 5.81875C11.247 6.22767 11.8985 6.5776 12.5803 6.86288C13.9815 7.44918 15.4834 7.75095 17.0001 7.75095C18.5168 7.75095 20.0186 7.44918 21.4199 6.86288C22.1016 6.5776 22.7532 6.22766 23.366 5.81873C19.8027 2.39385 14.1974 2.39386 10.6342 5.81875Z" fill="#171717" fill-opacity="0.8"/>
</g>
<defs>
<clipPath id="clip0_18_139">
<rect width="32.6667" height="23.3333" fill="white" transform="translate(0.666748 0.916748)"/>
</clipPath>
</defs>
</svg>
