<svg width="32" height="31" viewBox="0 0 32 31" fill="none" xmlns="http://www.w3.org/2000/svg">
<g clip-path="url(#clip0_18_175)">
<path fill-rule="evenodd" clip-rule="evenodd" d="M8.41658 0.416504C12.6047 0.416504 15.9999 3.81168 15.9999 7.99984V0.416504H23.5833C27.7714 0.416504 31.1666 3.81168 31.1666 7.99984C31.1666 12.188 27.7714 15.5832 23.5833 15.5832C27.7714 15.5832 31.1666 18.9784 31.1666 23.1665C31.1666 25.2461 30.3295 27.1302 28.9739 28.5002L28.9455 28.5288L28.9203 28.5538C27.55 29.9113 25.6646 30.7498 23.5833 30.7498C21.5161 30.7498 19.6421 29.9227 18.2742 28.5814C18.2564 28.5639 18.2387 28.5463 18.221 28.5288C18.2044 28.5121 18.1879 28.4955 18.1714 28.4787C16.8283 27.1105 15.9999 25.2352 15.9999 23.1665C15.9999 27.3546 12.6047 30.7498 8.41658 30.7498C4.22842 30.7498 0.833252 27.3546 0.833252 23.1665V15.5832H8.41658C4.22842 15.5832 0.833252 12.188 0.833252 7.99984C0.833252 3.81168 4.22842 0.416504 8.41658 0.416504ZM14.4833 7.99984C14.4833 11.3504 11.7671 14.0665 8.41658 14.0665V1.93317C11.7671 1.93317 14.4833 4.64931 14.4833 7.99984ZM29.6499 23.1665C29.6499 19.816 26.9338 17.0998 23.5833 17.0998C20.2327 17.0998 17.5166 19.816 17.5166 23.1665H29.6499ZM2.34992 17.0998V23.1665C2.34992 26.517 5.06606 29.2332 8.41658 29.2332C11.7671 29.2332 14.4833 26.517 14.4833 23.1665V17.0998H2.34992ZM17.5166 14.0665V1.93317H23.5833C26.9338 1.93317 29.6499 4.64931 29.6499 7.99984C29.6499 11.3504 26.9338 14.0665 23.5833 14.0665H17.5166Z" fill="#171717" fill-opacity="0.8"/>
</g>
<defs>
<clipPath id="clip0_18_175">
<rect width="30.3333" height="30.3333" fill="white" transform="translate(0.833252 0.416504)"/>
</clipPath>
</defs>
</svg>
