<svg width="32" height="28" viewBox="0 0 32 28" fill="none" xmlns="http://www.w3.org/2000/svg">
<g clip-path="url(#clip0_18_162)">
<path fill-rule="evenodd" clip-rule="evenodd" d="M19.7917 23.5834C20.7875 23.5834 21.7736 23.3851 22.6937 22.9998C23.6137 22.6145 24.4497 22.0499 25.1539 21.3379C25.8581 20.626 26.4166 19.7808 26.7978 18.8506C27.1788 17.9205 27.375 16.9235 27.375 15.9167C27.375 12.8668 26.1765 9.94166 24.0433 7.78502C21.9101 5.62835 19.0168 4.41675 16 4.41675C12.9832 4.41675 10.0899 5.62835 7.95666 7.78502C5.82343 9.94166 4.625 12.8668 4.625 15.9167C4.625 16.9235 4.82115 17.9205 5.20224 18.8506C5.58334 19.7808 6.14193 20.626 6.84611 21.3379C7.55029 22.0499 8.38626 22.6145 9.30634 22.9998C10.2264 23.3851 11.2125 23.5834 12.2083 23.5834H19.7917ZM16 7.48341C13.7876 7.48341 11.6659 8.3719 10.1015 9.95346C8.53717 11.535 7.65833 13.6801 7.65833 15.9167C7.65833 16.5208 7.77602 17.119 8.00468 17.6771C8.23334 18.2352 8.56848 18.7423 8.99103 19.1694C9.4135 19.5966 9.91506 19.9354 10.4671 20.1666C11.0192 20.3978 11.6108 20.5167 12.2083 20.5167H19.7917C20.3892 20.5167 20.9808 20.3978 21.5329 20.1666C22.0849 19.9354 22.5865 19.5966 23.009 19.1694C23.4315 18.7423 23.7666 18.2352 23.9953 17.6771C24.224 17.119 24.3417 16.5208 24.3417 15.9167C24.3417 13.6801 23.4628 11.535 21.8985 9.95346C20.3341 8.3719 18.2124 7.48341 16 7.48341Z" fill="#171717" fill-opacity="0.8"/>
<path fill-rule="evenodd" clip-rule="evenodd" d="M10.6917 27.4166C9.39708 27.4166 8.11518 27.1191 6.91909 26.5412C5.72305 25.9633 4.63626 25.1162 3.72081 24.0483C2.8054 22.9804 2.07923 21.7127 1.58379 20.3175C1.08837 18.9222 0.833374 17.4268 0.833374 15.9166C0.833374 11.85 2.43129 7.94984 5.27559 5.07428C8.11989 2.19873 11.9776 0.583252 16 0.583252C20.0225 0.583252 23.8802 2.19873 26.7245 5.07428C29.5688 7.94984 31.1667 11.85 31.1667 15.9166C31.1667 17.4268 30.9117 18.9222 30.4163 20.3175C29.9208 21.7127 29.1947 22.9804 28.2793 24.0483C27.3638 25.1162 26.2771 25.9633 25.081 26.5412C23.8849 27.1191 22.603 27.4166 21.3084 27.4166H10.6917ZM7.42048 7.24274C9.69594 4.9423 12.7821 3.64992 16 3.64992C19.218 3.64992 22.3041 4.9423 24.5796 7.24274C26.8551 9.54321 28.1334 12.6632 28.1334 15.9166C28.1334 17.0803 27.9365 18.2248 27.5614 19.2813C27.1862 20.3378 26.6452 21.2721 25.987 22.0399C25.3295 22.8069 24.5726 23.3879 23.773 23.7743C22.9753 24.1598 22.1393 24.3499 21.3084 24.3499H10.6917C9.8608 24.3499 9.02482 24.1598 8.22712 23.7743C7.42745 23.3879 6.67057 22.8069 6.01307 22.0399C5.35488 21.2721 4.81389 20.3378 4.43874 19.2813C4.06358 18.2248 3.86671 17.0803 3.86671 15.9166C3.86671 12.6632 5.14504 9.54321 7.42048 7.24274Z" fill="#171717" fill-opacity="0.8"/>
<path d="M19.7917 19.75H15.9967C15.7419 19.7498 15.489 19.7235 15.2417 19.6726C14.7625 19.5737 14.3042 19.3814 13.8936 19.1039C13.27 18.6827 12.784 18.0841 12.497 17.3836C12.404 17.1564 12.3332 16.9219 12.285 16.6833C12.1846 16.1861 12.1824 15.6713 12.2813 15.1688C12.4276 14.4252 12.7887 13.7422 13.319 13.2061C13.8492 12.67 14.5248 12.3049 15.2603 12.157C15.2834 12.1523 15.3064 12.148 15.3294 12.1437C15.5517 12.1034 15.7761 12.0833 16.0001 12.0833C16.4957 12.0833 16.9888 12.1815 17.4511 12.3751C18.1439 12.6652 18.7361 13.1566 19.1527 13.7869C19.5694 14.4174 19.7917 15.1585 19.7917 15.9167H16.7584C16.7584 15.765 16.714 15.6168 16.6306 15.4907C16.5473 15.3647 16.4288 15.2664 16.2903 15.2083C16.1517 15.1503 15.9992 15.1351 15.8521 15.1647C15.705 15.1943 15.5699 15.2673 15.4639 15.3746C15.3578 15.4817 15.2856 15.6184 15.2563 15.7671C15.227 15.9158 15.2421 16.07 15.2995 16.2101C15.3569 16.3501 15.4541 16.4699 15.5788 16.5541C15.7035 16.6384 15.8501 16.6833 16.0001 16.6833H19.7917C19.8913 16.6833 19.99 16.6635 20.082 16.625C20.1739 16.5864 20.2575 16.53 20.328 16.4588C20.3984 16.3876 20.4542 16.3031 20.4924 16.2101C20.5304 16.1171 20.5501 16.0173 20.5501 15.9167C20.5501 14.6967 20.0707 13.5267 19.2174 12.664C18.3641 11.8013 17.2068 11.3167 16.0001 11.3167C15.8692 11.3167 15.7389 11.3223 15.6095 11.3336C15.2916 11.3613 14.979 11.4226 14.6768 11.5155C14.3794 11.6069 14.0921 11.7288 13.8193 11.8794C13.5069 12.0519 13.2136 12.262 12.9463 12.5067C12.8906 12.5576 12.8361 12.61 12.7828 12.664C12.4094 13.0414 12.1077 13.4777 11.8864 13.9512C11.7757 14.1879 11.6851 14.4339 11.6158 14.6866C11.5365 14.9755 11.4849 15.273 11.4627 15.575C11.4543 15.6884 11.4501 15.8023 11.4501 15.9167C11.4501 16.5178 11.5666 17.1162 11.7964 17.677C12.1408 18.5176 12.724 19.2359 13.4723 19.7414C13.4765 19.7443 13.4807 19.7472 13.485 19.75H12.2084C11.7105 19.75 11.2174 19.6509 10.7574 19.4582C10.2974 19.2655 9.87942 18.9832 9.52733 18.6272C9.17523 18.2713 8.89594 17.8487 8.70537 17.3836C8.5148 16.9185 8.41675 16.4201 8.41675 15.9167C8.41675 13.8833 9.21573 11.9333 10.6378 10.4955C12.06 9.05776 13.9888 8.25 16.0001 8.25C18.0113 8.25 19.9402 9.05776 21.3623 10.4955C22.7844 11.9333 23.5834 13.8833 23.5834 15.9167C23.5834 16.4201 23.4854 16.9185 23.2948 17.3836C23.1042 17.8487 22.8249 18.2713 22.4728 18.6272C22.1207 18.9832 21.7027 19.2655 21.2427 19.4582C20.7827 19.6509 20.2897 19.75 19.7917 19.75Z" fill="#171717" fill-opacity="0.8"/>
</g>
<defs>
<clipPath id="clip0_18_162">
<rect width="30.3333" height="26.8333" fill="white" transform="translate(0.833374 0.583252)"/>
</clipPath>
</defs>
</svg>
